<svg width="1134" height="396" viewBox="0 0 1134 396" fill="none" xmlns="http://www.w3.org/2000/svg">
<path d="M5.27051 291.668C4.90137 291.668 4.55615 291.572 4.23486 291.381C3.91357 291.189 3.65723 290.933 3.46582 290.612C3.27441 290.291 3.17871 289.938 3.17871 289.556C3.17871 289.173 3.27441 288.821 3.46582 288.5C3.65723 288.178 3.91357 287.925 4.23486 287.741C4.55615 287.556 4.90137 287.464 5.27051 287.464C5.65332 287.464 6.00879 287.556 6.33691 287.741C6.66504 287.925 6.92139 288.178 7.10596 288.5C7.29053 288.821 7.38281 289.173 7.38281 289.556C7.38281 289.938 7.29053 290.291 7.10596 290.612C6.92139 290.933 6.66504 291.189 6.33691 291.381C6.00879 291.572 5.65332 291.668 5.27051 291.668ZM32.3818 298.661H30.8232V280.43H32.3818V298.661ZM31.418 289.187H27.8701V287.812H31.418V289.187ZM28.3418 297.738H26.8037V280.819H28.3418V297.738ZM21.7998 285.413C21.7998 286.862 21.6392 288.202 21.3179 289.433C20.9966 290.663 20.5181 291.743 19.8823 292.673C19.2466 293.603 18.4639 294.341 17.5342 294.888L16.5293 293.657C17.3906 293.179 18.1221 292.529 18.7236 291.709C19.3252 290.889 19.7798 289.942 20.0874 288.869C20.395 287.795 20.5488 286.644 20.5488 285.413V283.26H21.7998V285.413ZM22.1074 285.413C22.1074 286.534 22.2612 287.59 22.5688 288.582C22.8765 289.573 23.3276 290.451 23.9224 291.217C24.5171 291.982 25.2383 292.584 26.0859 293.021L25.1221 294.272C24.2061 293.767 23.4302 293.073 22.7944 292.191C22.1587 291.309 21.6768 290.291 21.3486 289.135C21.0205 287.98 20.8564 286.739 20.8564 285.413V283.26H22.1074V285.413ZM25.4912 283.957H16.96V282.604H25.4912V283.957ZM51.5361 292.365H34.8428V291.032H51.5361V292.365ZM43.9277 298.661H42.3486V291.832H43.9277V298.661ZM49.3623 288.551H36.9961V281.455H49.3623V288.551ZM38.5752 287.279H47.7627V282.768H38.5752V287.279ZM57.8936 297.205C56.9502 297.205 56.1196 297.027 55.4019 296.672C54.6841 296.316 54.1304 295.824 53.7407 295.195C53.3511 294.566 53.1562 293.855 53.1562 293.062C53.1562 292.461 53.2827 291.924 53.5356 291.453C53.7886 290.981 54.1338 290.543 54.5713 290.14C55.0088 289.737 55.5693 289.303 56.2529 288.838L58.4473 287.218C58.9121 286.903 59.2573 286.592 59.4829 286.285C59.7085 285.977 59.8213 285.591 59.8213 285.126C59.8213 284.866 59.7461 284.613 59.5957 284.367C59.4453 284.121 59.2334 283.919 58.96 283.762C58.6865 283.605 58.3789 283.526 58.0371 283.526C57.6816 283.526 57.3569 283.615 57.063 283.793C56.769 283.971 56.54 284.207 56.376 284.5C56.2119 284.794 56.1299 285.099 56.1299 285.413C56.1299 285.7 56.2051 286.001 56.3555 286.315C56.5059 286.63 56.6904 286.934 56.9092 287.228C57.1279 287.522 57.4219 287.895 57.791 288.346C57.8867 288.455 57.9824 288.571 58.0781 288.694L64.9072 297H62.7949L57.1553 290.232C56.9639 290 56.7725 289.768 56.5811 289.535C56.0479 288.906 55.6377 288.394 55.3506 287.997C55.0635 287.601 54.8276 287.187 54.6431 286.756C54.4585 286.326 54.3662 285.871 54.3662 285.393C54.3662 284.723 54.5166 284.131 54.8174 283.619C55.1182 283.106 55.5386 282.709 56.0786 282.429C56.6187 282.149 57.251 282.009 57.9756 282.009C58.7002 282.009 59.3359 282.149 59.8828 282.429C60.4297 282.709 60.8501 283.085 61.144 283.557C61.438 284.029 61.585 284.552 61.585 285.126C61.585 285.796 61.4209 286.391 61.0928 286.91C60.7646 287.43 60.2725 287.936 59.6162 288.428L56.6631 290.643C56.2529 290.93 55.9214 291.23 55.6685 291.545C55.4155 291.859 55.2344 292.146 55.125 292.406C55.0156 292.666 54.9609 292.885 54.9609 293.062C54.9609 293.514 55.084 293.938 55.3301 294.334C55.5762 294.73 55.918 295.048 56.3555 295.288C56.793 295.527 57.292 295.646 57.8525 295.646C58.6045 295.646 59.3257 295.431 60.0161 295C60.7065 294.57 61.2671 293.961 61.6978 293.175C62.1284 292.389 62.3438 291.49 62.3438 290.479H64.0459C64.0459 291.367 63.9434 292.126 63.7383 292.755C63.5332 293.384 63.3042 293.873 63.0513 294.221C62.7983 294.57 62.5146 294.895 62.2002 295.195C62.1455 295.277 62.0908 295.346 62.0361 295.4C62.0225 295.441 61.9985 295.479 61.9644 295.513C61.9302 295.547 61.8994 295.585 61.8721 295.626C61.4072 296.132 60.8159 296.521 60.0981 296.795C59.3804 297.068 58.6455 297.205 57.8936 297.205ZM72.7207 294.375H71.1006V291.36H72.7207V294.375ZM80.7598 298.661H79.1602V280.43H80.7598V298.661ZM67.0195 293.801C69.1113 293.787 71.0562 293.739 72.854 293.657C74.6519 293.575 76.3506 293.432 77.9502 293.227L78.0732 294.457C76.2686 294.744 74.3887 294.936 72.4336 295.031C70.4785 295.127 68.3867 295.175 66.1582 295.175L65.9121 293.801H67.0195ZM77.4785 283.998H66.3018V282.686H77.4785V283.998ZM71.8799 285.044C72.7549 285.044 73.5239 285.184 74.187 285.464C74.8501 285.745 75.3662 286.138 75.7354 286.644C76.1045 287.149 76.2891 287.744 76.2891 288.428C76.2891 289.098 76.1045 289.682 75.7354 290.181C75.3662 290.68 74.8501 291.07 74.187 291.35C73.5239 291.63 72.7549 291.771 71.8799 291.771C71.0186 291.771 70.2563 291.634 69.5933 291.36C68.9302 291.087 68.4175 290.697 68.0552 290.191C67.6929 289.686 67.5117 289.098 67.5117 288.428C67.5117 287.744 67.6929 287.149 68.0552 286.644C68.4175 286.138 68.9302 285.745 69.5933 285.464C70.2563 285.184 71.0186 285.044 71.8799 285.044ZM71.8799 286.295C71.333 286.295 70.8408 286.384 70.4033 286.562C69.9658 286.739 69.624 286.989 69.3779 287.31C69.1318 287.631 69.0088 288.004 69.0088 288.428C69.0088 288.838 69.1318 289.2 69.3779 289.515C69.624 289.829 69.9658 290.072 70.4033 290.243C70.8408 290.414 71.333 290.499 71.8799 290.499C72.4404 290.499 72.9395 290.417 73.377 290.253C73.8145 290.089 74.1528 289.846 74.3921 289.525C74.6313 289.204 74.751 288.838 74.751 288.428C74.751 288.004 74.6313 287.631 74.3921 287.31C74.1528 286.989 73.8145 286.739 73.377 286.562C72.9395 286.384 72.4404 286.295 71.8799 286.295ZM72.7207 283.383H71.1006V280.45H72.7207V283.383ZM95.1973 286.849H91.0957V285.516H95.1973V286.849ZM95.1768 291.422H90.9521V290.089H95.1768V291.422ZM99.5654 298.661H98.0273V280.43H99.5654V298.661ZM95.874 297.738H94.3359V280.922H95.874V297.738ZM91.8135 282.768C91.8135 284.395 91.5742 285.933 91.0957 287.382C90.6172 288.831 89.8687 290.178 88.8501 291.422C87.8315 292.666 86.5225 293.767 84.9229 294.724L83.9385 293.555C85.3604 292.707 86.5396 291.743 87.4761 290.663C88.4126 289.583 89.1099 288.404 89.5679 287.125C90.0259 285.847 90.2549 284.49 90.2549 283.055V282.768H91.8135ZM90.8906 284.101H84.7588V282.768H90.8906V284.101ZM104.651 288.879C106.06 288.879 107.246 288.869 108.209 288.848C109.173 288.828 110.065 288.78 110.886 288.705C111.706 288.629 112.547 288.517 113.408 288.366L113.572 289.679C112.328 289.897 111.091 290.038 109.86 290.099C108.63 290.161 106.894 290.191 104.651 290.191H103.175V288.879H104.651ZM111.911 282.891H104.795V289.576H103.175V281.558H111.911V282.891ZM111.398 286.459H104.262V285.167H111.398V286.459ZM117.161 291.319H115.562V280.45H117.161V291.319ZM117.161 298.415H105.308V292.222H117.161V298.415ZM106.887 297.103H115.582V293.514H106.887V297.103ZM5.27051 323.668C4.90137 323.668 4.55615 323.572 4.23486 323.381C3.91357 323.189 3.65723 322.933 3.46582 322.612C3.27441 322.291 3.17871 321.938 3.17871 321.556C3.17871 321.173 3.27441 320.821 3.46582 320.5C3.65723 320.178 3.91357 319.925 4.23486 319.741C4.55615 319.556 4.90137 319.464 5.27051 319.464C5.65332 319.464 6.00879 319.556 6.33691 319.741C6.66504 319.925 6.92139 320.178 7.10596 320.5C7.29053 320.821 7.38281 321.173 7.38281 321.556C7.38281 321.938 7.29053 322.291 7.10596 322.612C6.92139 322.933 6.66504 323.189 6.33691 323.381C6.00879 323.572 5.65332 323.668 5.27051 323.668ZM31.7666 325.78H30.167V312.45H31.7666V325.78ZM32.3408 330.271H19.9951V328.918H32.3408V330.271ZM21.5947 329.369H19.9951V324.427H21.5947V329.369ZM21.9229 313.722C22.8252 313.722 23.6421 313.91 24.3735 314.286C25.105 314.662 25.6758 315.191 26.0859 315.875C26.4961 316.559 26.7012 317.331 26.7012 318.192C26.7012 319.067 26.4961 319.843 26.0859 320.52C25.6758 321.197 25.105 321.727 24.3735 322.109C23.6421 322.492 22.8252 322.684 21.9229 322.684C21.0205 322.684 20.207 322.492 19.4824 322.109C18.7578 321.727 18.187 321.197 17.77 320.52C17.353 319.843 17.1445 319.067 17.1445 318.192C17.1445 317.331 17.353 316.559 17.77 315.875C18.187 315.191 18.7578 314.662 19.4824 314.286C20.207 313.91 21.0205 313.722 21.9229 313.722ZM21.9229 315.137C21.3213 315.137 20.7744 315.267 20.2822 315.526C19.79 315.786 19.4072 316.148 19.1338 316.613C18.8604 317.078 18.7236 317.604 18.7236 318.192C18.7236 318.78 18.8604 319.31 19.1338 319.782C19.4072 320.253 19.79 320.619 20.2822 320.879C20.7744 321.139 21.3213 321.269 21.9229 321.269C22.5244 321.269 23.0679 321.139 23.5532 320.879C24.0386 320.619 24.4214 320.253 24.7017 319.782C24.9819 319.31 25.1221 318.78 25.1221 318.192C25.1221 317.604 24.9819 317.078 24.7017 316.613C24.4214 316.148 24.0386 315.786 23.5532 315.526C23.0679 315.267 22.5244 315.137 21.9229 315.137ZM40.708 317.331C40.708 318.644 40.4858 319.929 40.0415 321.187C39.5972 322.444 38.9888 323.559 38.2163 324.529C37.4438 325.5 36.5791 326.245 35.6221 326.765L34.5967 325.473C35.4854 325.035 36.292 324.386 37.0166 323.524C37.7412 322.663 38.3188 321.686 38.7495 320.592C39.1802 319.498 39.3955 318.411 39.3955 317.331V314.009H40.708V317.331ZM40.9746 317.331C40.9746 318.37 41.1865 319.413 41.6104 320.458C42.0342 321.504 42.6084 322.438 43.333 323.258C44.0576 324.078 44.8438 324.7 45.6914 325.124L44.707 326.416C43.7637 325.91 42.9092 325.189 42.1436 324.252C41.3779 323.316 40.7764 322.243 40.3389 321.033C39.9014 319.823 39.6826 318.589 39.6826 317.331V314.009H40.9746V317.331ZM48.9727 330.661H47.373V312.43H48.9727V330.661ZM52.0283 321.228H48.6035V319.833H52.0283V321.228ZM55.5557 320.879C56.9639 320.879 58.1499 320.869 59.1138 320.848C60.0776 320.828 60.9697 320.78 61.79 320.705C62.6104 320.629 63.4512 320.517 64.3125 320.366L64.4766 321.679C63.2324 321.897 61.9951 322.038 60.7646 322.099C59.5342 322.161 57.7979 322.191 55.5557 322.191H54.0791V320.879H55.5557ZM62.8154 314.891H55.6992V321.576H54.0791V313.558H62.8154V314.891ZM62.3027 318.459H55.166V317.167H62.3027V318.459ZM68.0654 323.319H66.4658V312.45H68.0654V323.319ZM68.0654 330.415H56.2119V324.222H68.0654V330.415ZM57.791 329.103H66.4863V325.514H57.791V329.103Z" fill="#A8A8A8"/>
<path d="M470.271 291.668C469.901 291.668 469.556 291.572 469.235 291.381C468.914 291.189 468.657 290.933 468.466 290.612C468.274 290.291 468.179 289.938 468.179 289.556C468.179 289.173 468.274 288.821 468.466 288.5C468.657 288.178 468.914 287.925 469.235 287.741C469.556 287.556 469.901 287.464 470.271 287.464C470.653 287.464 471.009 287.556 471.337 287.741C471.665 287.925 471.921 288.178 472.106 288.5C472.291 288.821 472.383 289.173 472.383 289.556C472.383 289.938 472.291 290.291 472.106 290.612C471.921 290.933 471.665 291.189 471.337 291.381C471.009 291.572 470.653 291.668 470.271 291.668ZM490.881 294.026H482.473V282.275H490.881V294.026ZM484.031 292.714H489.281V283.567H484.031V292.714ZM495.823 298.661H494.224V280.43H495.823V298.661ZM498.879 289.104H495.454V287.71H498.879V289.104ZM507.902 282.604C507.902 284.299 507.694 285.878 507.277 287.341C506.86 288.804 506.135 290.181 505.103 291.473C504.071 292.765 502.673 293.896 500.909 294.867L499.986 293.719C501.572 292.857 502.833 291.863 503.77 290.735C504.707 289.607 505.373 288.39 505.77 287.084C506.166 285.779 506.364 284.367 506.364 282.85V282.604H507.902ZM506.979 283.937H500.827V282.604H506.979V283.937ZM500.191 288.653L499.945 287.218L506.139 286.828V288.038L500.191 288.653ZM510.732 288.981H506.446V287.648H510.732V288.981ZM515.47 298.661H513.932V280.43H515.47V298.661ZM511.635 297.738H510.097V280.922H511.635V297.738ZM521.499 289.104C523.317 289.091 524.791 289.05 525.918 288.981C527.046 288.913 528.178 288.79 529.312 288.612L529.477 289.925C528.205 290.13 526.934 290.267 525.662 290.335C524.391 290.403 522.688 290.438 520.556 290.438H519.079V289.104H520.556H521.499ZM527.815 283.096H520.699V289.802H519.079V281.783H527.815V283.096ZM527.303 286.705H520.166V285.393H527.303V286.705ZM533.065 291.75H531.466V280.45H533.065V291.75ZM527.016 292.017C528.273 292.003 529.364 292.126 530.287 292.386C531.209 292.646 531.917 293.021 532.409 293.514C532.901 294.006 533.147 294.601 533.147 295.298C533.147 295.995 532.901 296.593 532.409 297.092C531.917 297.591 531.213 297.971 530.297 298.23C529.381 298.49 528.287 298.62 527.016 298.62C525.73 298.62 524.626 298.49 523.704 298.23C522.781 297.971 522.073 297.591 521.581 297.092C521.089 296.593 520.843 295.995 520.843 295.298C520.843 294.601 521.089 294.006 521.581 293.514C522.073 293.021 522.781 292.646 523.704 292.386C524.626 292.126 525.73 292.003 527.016 292.017ZM527.016 293.288C526.072 293.288 525.255 293.367 524.565 293.524C523.875 293.681 523.348 293.91 522.986 294.211C522.624 294.512 522.442 294.874 522.442 295.298C522.442 295.722 522.624 296.087 522.986 296.395C523.348 296.703 523.875 296.938 524.565 297.103C525.255 297.267 526.072 297.349 527.016 297.349C527.945 297.349 528.752 297.267 529.436 297.103C530.119 296.938 530.646 296.703 531.015 296.395C531.384 296.087 531.568 295.722 531.568 295.298C531.568 294.888 531.384 294.529 531.015 294.221C530.646 293.914 530.119 293.681 529.436 293.524C528.752 293.367 527.945 293.288 527.016 293.288ZM538.705 288.879C540.113 288.879 541.299 288.869 542.263 288.848C543.227 288.828 544.119 288.78 544.939 288.705C545.76 288.629 546.601 288.517 547.462 288.366L547.626 289.679C546.382 289.897 545.145 290.038 543.914 290.099C542.684 290.161 540.947 290.191 538.705 290.191H537.229V288.879H538.705ZM545.965 282.891H538.849V289.576H537.229V281.558H545.965V282.891ZM545.452 286.459H538.315V285.167H545.452V286.459ZM551.215 291.319H549.615V280.45H551.215V291.319ZM551.215 298.415H539.361V292.222H551.215V298.415ZM540.94 297.103H549.636V293.514H540.94V297.103ZM470.271 323.668C469.901 323.668 469.556 323.572 469.235 323.381C468.914 323.189 468.657 322.933 468.466 322.612C468.274 322.291 468.179 321.938 468.179 321.556C468.179 321.173 468.274 320.821 468.466 320.5C468.657 320.178 468.914 319.925 469.235 319.741C469.556 319.556 469.901 319.464 470.271 319.464C470.653 319.464 471.009 319.556 471.337 319.741C471.665 319.925 471.921 320.178 472.106 320.5C472.291 320.821 472.383 321.173 472.383 321.556C472.383 321.938 472.291 322.291 472.106 322.612C471.921 322.933 471.665 323.189 471.337 323.381C471.009 323.572 470.653 323.668 470.271 323.668ZM496.787 330.661H495.167V312.43H496.787V330.661ZM491.394 314.419C491.394 316.224 491.096 317.912 490.501 319.484C489.907 321.057 488.974 322.502 487.702 323.822C486.431 325.141 484.804 326.279 482.821 327.236L481.939 325.924C483.703 325.09 485.166 324.109 486.328 322.981C487.49 321.853 488.358 320.592 488.933 319.197C489.507 317.803 489.794 316.292 489.794 314.665V314.419H491.394ZM490.45 315.731H482.78V314.419H490.45V315.731ZM511.327 315.342H500.561V314.111H511.327V315.342ZM505.954 316.039C506.815 316.039 507.578 316.148 508.241 316.367C508.904 316.586 509.417 316.9 509.779 317.311C510.141 317.721 510.322 318.206 510.322 318.767C510.322 319.313 510.141 319.789 509.779 320.192C509.417 320.595 508.904 320.906 508.241 321.125C507.578 321.344 506.815 321.453 505.954 321.453C505.079 321.453 504.313 321.344 503.657 321.125C503.001 320.906 502.495 320.595 502.14 320.192C501.784 319.789 501.606 319.313 501.606 318.767C501.606 318.206 501.784 317.721 502.14 317.311C502.495 316.9 503.001 316.586 503.657 316.367C504.313 316.148 505.079 316.039 505.954 316.039ZM505.954 317.188C505.394 317.174 504.901 317.232 504.478 317.362C504.054 317.492 503.722 317.676 503.483 317.916C503.244 318.155 503.124 318.438 503.124 318.767C503.124 319.081 503.244 319.354 503.483 319.587C503.722 319.819 504.054 319.997 504.478 320.12C504.901 320.243 505.394 320.305 505.954 320.305C506.515 320.305 507.007 320.243 507.431 320.12C507.854 319.997 508.183 319.819 508.415 319.587C508.647 319.354 508.764 319.081 508.764 318.767C508.764 318.438 508.647 318.155 508.415 317.916C508.183 317.676 507.854 317.492 507.431 317.362C507.007 317.232 506.515 317.174 505.954 317.188ZM506.733 314.788H505.134V312.327H506.733V314.788ZM506.733 323.299H505.134V320.817H506.733V323.299ZM514.896 324.632H513.275V312.491H514.896V324.632ZM514.896 330.661H513.275V326.785H502.591V325.493H514.896V330.661ZM499.945 322.766C502.229 322.766 504.337 322.728 506.272 322.653C508.207 322.578 510.035 322.424 511.758 322.191L511.881 323.34C510.104 323.627 508.254 323.818 506.333 323.914C504.413 324.01 502.365 324.058 500.191 324.058L499.945 322.766ZM520.556 320.879C521.964 320.879 523.15 320.869 524.114 320.848C525.078 320.828 525.97 320.78 526.79 320.705C527.61 320.629 528.451 320.517 529.312 320.366L529.477 321.679C528.232 321.897 526.995 322.038 525.765 322.099C524.534 322.161 522.798 322.191 520.556 322.191H519.079V320.879H520.556ZM527.815 314.891H520.699V321.576H519.079V313.558H527.815V314.891ZM527.303 318.459H520.166V317.167H527.303V318.459ZM533.065 323.319H531.466V312.45H533.065V323.319ZM533.065 330.415H521.212V324.222H533.065V330.415ZM522.791 329.103H531.486V325.514H522.791V329.103ZM470.271 355.668C469.901 355.668 469.556 355.572 469.235 355.381C468.914 355.189 468.657 354.933 468.466 354.612C468.274 354.291 468.179 353.938 468.179 353.556C468.179 353.173 468.274 352.821 468.466 352.5C468.657 352.178 468.914 351.925 469.235 351.741C469.556 351.556 469.901 351.464 470.271 351.464C470.653 351.464 471.009 351.556 471.337 351.741C471.665 351.925 471.921 352.178 472.106 352.5C472.291 352.821 472.383 353.173 472.383 353.556C472.383 353.938 472.291 354.291 472.106 354.612C471.921 354.933 471.665 355.189 471.337 355.381C471.009 355.572 470.653 355.668 470.271 355.668ZM495.823 362.661H494.224V344.43H495.823V362.661ZM498.879 353.002H495.454V351.607H498.879V353.002ZM484.072 350.808H489.404V345.988H491.004V358.293H482.473V345.988H484.072V350.808ZM489.404 356.939V352.1H484.072V356.939H489.404ZM514.896 362.702H513.275V344.43H514.896V362.702ZM505.195 345.845C506.098 345.845 506.901 346.108 507.605 346.634C508.309 347.161 508.859 347.902 509.256 348.859C509.652 349.816 509.851 350.931 509.851 352.202C509.851 353.474 509.652 354.588 509.256 355.545C508.859 356.502 508.309 357.24 507.605 357.76C506.901 358.279 506.098 358.539 505.195 358.539C504.293 358.539 503.49 358.279 502.786 357.76C502.082 357.24 501.531 356.502 501.135 355.545C500.738 354.588 500.54 353.474 500.54 352.202C500.54 350.931 500.738 349.816 501.135 348.859C501.531 347.902 502.082 347.161 502.786 346.634C503.49 346.108 504.293 345.845 505.195 345.845ZM505.195 347.28C504.594 347.28 504.057 347.485 503.585 347.896C503.114 348.306 502.748 348.88 502.488 349.618C502.229 350.356 502.099 351.218 502.099 352.202C502.099 353.173 502.229 354.031 502.488 354.776C502.748 355.521 503.114 356.095 503.585 356.499C504.057 356.902 504.594 357.104 505.195 357.104C505.797 357.104 506.333 356.902 506.805 356.499C507.277 356.095 507.643 355.521 507.902 354.776C508.162 354.031 508.292 353.173 508.292 352.202C508.292 351.218 508.162 350.356 507.902 349.618C507.643 348.88 507.28 348.306 506.815 347.896C506.351 347.485 505.811 347.28 505.195 347.28ZM520.166 352.059C521.957 352.059 523.454 352.024 524.657 351.956C525.86 351.888 527.104 351.744 528.39 351.525L528.533 352.817C527.193 353.022 525.905 353.163 524.667 353.238C523.43 353.313 521.93 353.351 520.166 353.351H518.792V352.059H520.166ZM526.872 349.844H520.392V352.694H518.792V348.634H525.272V346.583H518.751V345.332H526.872V349.844ZM533.127 359.216H522.832V361.861H521.232V358.006H531.527V356.181H521.191V354.93H533.127V359.216ZM533.845 362.456H521.232V361.144H533.845V362.456ZM533.127 354.048H531.507V344.43H533.127V354.048ZM532.04 349.495H528.041V348.162H532.04V349.495ZM538.705 352.879C540.113 352.879 541.299 352.869 542.263 352.848C543.227 352.828 544.119 352.78 544.939 352.705C545.76 352.629 546.601 352.517 547.462 352.366L547.626 353.679C546.382 353.897 545.145 354.038 543.914 354.099C542.684 354.161 540.947 354.191 538.705 354.191H537.229V352.879H538.705ZM545.965 346.891H538.849V353.576H537.229V345.558H545.965V346.891ZM545.452 350.459H538.315V349.167H545.452V350.459ZM551.215 355.319H549.615V344.45H551.215V355.319ZM551.215 362.415H539.361V356.222H551.215V362.415ZM540.94 361.103H549.636V357.514H540.94V361.103Z" fill="#A8A8A8"/>
<path d="M935.271 291.668C934.901 291.668 934.556 291.572 934.235 291.381C933.914 291.189 933.657 290.933 933.466 290.612C933.274 290.291 933.179 289.938 933.179 289.556C933.179 289.173 933.274 288.821 933.466 288.5C933.657 288.178 933.914 287.925 934.235 287.741C934.556 287.556 934.901 287.464 935.271 287.464C935.653 287.464 936.009 287.556 936.337 287.741C936.665 287.925 936.921 288.178 937.106 288.5C937.291 288.821 937.383 289.173 937.383 289.556C937.383 289.938 937.291 290.291 937.106 290.612C936.921 290.933 936.665 291.189 936.337 291.381C936.009 291.572 935.653 291.668 935.271 291.668ZM961.746 282.275H948.272V281.004H961.746V282.275ZM961.685 287.054H948.334V285.803H961.685V287.054ZM952.682 286.644H951.082V281.476H952.682V286.644ZM958.937 286.644H957.337V281.476H958.937V286.644ZM963.325 289.884H946.714V288.592H963.325V289.884ZM961.192 295.482H950.364V297.718H948.765V294.313H959.613V292.734H948.724V291.524H961.192V295.482ZM961.746 298.456H948.765V297.226H961.746V298.456ZM980.347 292.878H978.809V280.45H980.347V292.878ZM979.301 286.562H975.794V285.229H979.301V286.562ZM976.245 291.299H974.748V280.799H976.245V291.299ZM966.894 289.699C968.274 289.699 969.478 289.658 970.503 289.576C971.528 289.494 972.581 289.351 973.661 289.146L973.846 290.438C972.738 290.656 971.668 290.803 970.636 290.878C969.604 290.954 968.356 290.991 966.894 290.991H965.704V289.699H966.894ZM972.574 286.972H967.263V290.581H965.704V285.741H971.036V283.198H965.663V281.865H972.574V286.972ZM974.83 292.488C974.83 293.514 974.505 294.45 973.856 295.298C973.207 296.146 972.349 296.85 971.282 297.41C970.216 297.971 969.067 298.36 967.837 298.579L967.181 297.328C968.261 297.164 969.279 296.846 970.236 296.375C971.193 295.903 971.969 295.329 972.564 294.652C973.159 293.975 973.456 293.254 973.456 292.488V292.017H974.83V292.488ZM975.056 292.488C975.056 293.254 975.35 293.975 975.938 294.652C976.525 295.329 977.301 295.903 978.265 296.375C979.229 296.846 980.251 297.164 981.331 297.328L980.675 298.579C979.444 298.36 978.296 297.971 977.229 297.41C976.163 296.85 975.309 296.146 974.666 295.298C974.023 294.45 973.702 293.514 973.702 292.488V292.017H975.056V292.488ZM999.624 290.95H983.013V289.638H999.624V290.95ZM992.098 290.335H990.498V287.177H992.098V290.335ZM998.045 282.357H984.571V281.024H998.045V282.357ZM997.983 287.525H984.633V286.192H997.983V287.525ZM988.98 287.115H987.381V281.619H988.98V287.115ZM995.235 287.115H993.636V281.619H995.235V287.115ZM997.594 298.415H985.043V292.714H997.594V298.415ZM986.643 297.103H996.015V293.965H986.643V297.103ZM1012.28 285.331C1012.28 286.644 1012.06 287.929 1011.61 289.187C1011.17 290.444 1010.56 291.559 1009.79 292.529C1009.01 293.5 1008.15 294.245 1007.19 294.765L1006.17 293.473C1007.05 293.035 1007.86 292.386 1008.59 291.524C1009.31 290.663 1009.89 289.686 1010.32 288.592C1010.75 287.498 1010.96 286.411 1010.96 285.331V282.009H1012.28V285.331ZM1012.54 285.331C1012.54 286.37 1012.76 287.413 1013.18 288.458C1013.6 289.504 1014.18 290.438 1014.9 291.258C1015.63 292.078 1016.41 292.7 1017.26 293.124L1016.28 294.416C1015.33 293.91 1014.48 293.189 1013.71 292.252C1012.95 291.316 1012.35 290.243 1011.91 289.033C1011.47 287.823 1011.25 286.589 1011.25 285.331V282.009H1012.54V285.331ZM1020.54 298.661H1018.94V280.43H1020.54V298.661ZM1023.6 289.228H1020.17V287.833H1023.6V289.228ZM1038.77 286.131H1033.83V284.798H1038.77V286.131ZM1029.61 281.291C1030.51 281.277 1031.32 281.448 1032.03 281.804C1032.74 282.159 1033.3 282.658 1033.71 283.301C1034.12 283.943 1034.32 284.675 1034.32 285.495C1034.32 286.315 1034.12 287.047 1033.71 287.689C1033.3 288.332 1032.74 288.831 1032.03 289.187C1031.32 289.542 1030.51 289.72 1029.61 289.72C1028.69 289.72 1027.87 289.542 1027.16 289.187C1026.44 288.831 1025.88 288.332 1025.47 287.689C1025.07 287.047 1024.87 286.315 1024.87 285.495C1024.87 284.675 1025.07 283.943 1025.47 283.301C1025.88 282.658 1026.44 282.159 1027.17 281.804C1027.89 281.448 1028.7 281.277 1029.61 281.291ZM1029.61 282.665C1028.99 282.651 1028.44 282.764 1027.96 283.003C1027.47 283.243 1027.09 283.578 1026.82 284.008C1026.54 284.439 1026.41 284.935 1026.41 285.495C1026.41 286.042 1026.54 286.534 1026.82 286.972C1027.09 287.409 1027.47 287.751 1027.96 287.997C1028.44 288.243 1028.99 288.366 1029.61 288.366C1030.22 288.366 1030.77 288.243 1031.25 287.997C1031.73 287.751 1032.1 287.409 1032.36 286.972C1032.63 286.534 1032.76 286.042 1032.76 285.495C1032.76 284.935 1032.63 284.439 1032.36 284.008C1032.1 283.578 1031.73 283.243 1031.25 283.003C1030.77 282.764 1030.22 282.651 1029.61 282.665ZM1039.7 290.212H1038.08V280.43H1039.7V290.212ZM1029.57 293.452H1038.08V291.135H1039.7V298.415H1027.95V291.135H1029.57V293.452ZM1038.08 297.103V294.744H1029.57V297.103H1038.08ZM1045.27 288.879C1046.68 288.879 1047.87 288.869 1048.83 288.848C1049.8 288.828 1050.69 288.78 1051.51 288.705C1052.33 288.629 1053.17 288.517 1054.03 288.366L1054.2 289.679C1052.95 289.897 1051.71 290.038 1050.48 290.099C1049.25 290.161 1047.52 290.191 1045.27 290.191H1043.8V288.879H1045.27ZM1052.53 282.891H1045.42V289.576H1043.8V281.558H1052.53V282.891ZM1052.02 286.459H1044.88V285.167H1052.02V286.459ZM1057.78 291.319H1056.18V280.45H1057.78V291.319ZM1057.78 298.415H1045.93V292.222H1057.78V298.415ZM1047.51 297.103H1056.21V293.514H1047.51V297.103ZM935.271 323.668C934.901 323.668 934.556 323.572 934.235 323.381C933.914 323.189 933.657 322.933 933.466 322.612C933.274 322.291 933.179 321.938 933.179 321.556C933.179 321.173 933.274 320.821 933.466 320.5C933.657 320.178 933.914 319.925 934.235 319.741C934.556 319.556 934.901 319.464 935.271 319.464C935.653 319.464 936.009 319.556 936.337 319.741C936.665 319.925 936.921 320.178 937.106 320.5C937.291 320.821 937.383 321.173 937.383 321.556C937.383 321.938 937.291 322.291 937.106 322.612C936.921 322.933 936.665 323.189 936.337 323.381C936.009 323.572 935.653 323.668 935.271 323.668ZM955.799 327.298H954.22V322.725H955.799V327.298ZM955.02 313.619C956.305 313.619 957.453 313.817 958.465 314.214C959.477 314.61 960.266 315.171 960.833 315.896C961.401 316.62 961.685 317.454 961.685 318.397C961.685 319.354 961.401 320.192 960.833 320.91C960.266 321.627 959.477 322.185 958.465 322.581C957.453 322.978 956.305 323.176 955.02 323.176C953.734 323.176 952.586 322.978 951.574 322.581C950.562 322.185 949.773 321.627 949.206 320.91C948.638 320.192 948.354 319.354 948.354 318.397C948.354 317.454 948.638 316.62 949.206 315.896C949.773 315.171 950.562 314.61 951.574 314.214C952.586 313.817 953.734 313.619 955.02 313.619ZM955.02 314.952C954.049 314.952 953.174 315.096 952.395 315.383C951.615 315.67 951.007 316.077 950.569 316.603C950.132 317.129 949.913 317.728 949.913 318.397C949.913 319.081 950.132 319.686 950.569 320.212C951.007 320.739 951.612 321.146 952.384 321.433C953.157 321.72 954.035 321.87 955.02 321.884C956.004 321.87 956.882 321.72 957.655 321.433C958.427 321.146 959.032 320.739 959.47 320.212C959.907 319.686 960.126 319.081 960.126 318.397C960.126 317.728 959.907 317.129 959.47 316.603C959.032 316.077 958.427 315.67 957.655 315.383C956.882 315.096 956.004 314.952 955.02 314.952ZM963.407 328.323H946.714V326.97H963.407V328.323ZM981.557 328.323H964.863V326.949H981.557V328.323ZM979.957 315.608H966.34V314.275H979.957V315.608ZM979.916 323.299H966.381V321.986H979.916V323.299ZM970.831 322.15H969.231V315.485H970.831V322.15ZM977.065 322.15H975.486V315.485H977.065V322.15ZM997.122 330.702H995.522V312.43H997.122V330.702ZM1000.18 321.043H996.753V319.689H1000.18V321.043ZM985.228 324.919C987.101 324.919 988.68 324.875 989.965 324.786C991.25 324.697 992.556 324.529 993.882 324.283L994.046 325.616C992.692 325.862 991.356 326.033 990.037 326.129C988.717 326.225 987.114 326.279 985.228 326.293H983.771V324.919H985.228ZM992.016 320.653H985.371V325.473H983.771V319.32H990.416V315.465H983.73V314.132H992.016V320.653ZM1016.21 325.78H1014.62V312.45H1016.21V325.78ZM1016.79 330.271H1004.44V328.918H1016.79V330.271ZM1006.04 329.369H1004.44V324.427H1006.04V329.369ZM1006.37 313.722C1007.27 313.722 1008.09 313.91 1008.82 314.286C1009.55 314.662 1010.12 315.191 1010.53 315.875C1010.94 316.559 1011.15 317.331 1011.15 318.192C1011.15 319.067 1010.94 319.843 1010.53 320.52C1010.12 321.197 1009.55 321.727 1008.82 322.109C1008.09 322.492 1007.27 322.684 1006.37 322.684C1005.47 322.684 1004.66 322.492 1003.93 322.109C1003.21 321.727 1002.64 321.197 1002.22 320.52C1001.8 319.843 1001.59 319.067 1001.59 318.192C1001.59 317.331 1001.8 316.559 1002.22 315.875C1002.64 315.191 1003.21 314.662 1003.93 314.286C1004.66 313.91 1005.47 313.722 1006.37 313.722ZM1006.37 315.137C1005.77 315.137 1005.22 315.267 1004.73 315.526C1004.24 315.786 1003.86 316.148 1003.58 316.613C1003.31 317.078 1003.17 317.604 1003.17 318.192C1003.17 318.78 1003.31 319.31 1003.58 319.782C1003.86 320.253 1004.24 320.619 1004.73 320.879C1005.22 321.139 1005.77 321.269 1006.37 321.269C1006.97 321.269 1007.52 321.139 1008 320.879C1008.49 320.619 1008.87 320.253 1009.15 319.782C1009.43 319.31 1009.57 318.78 1009.57 318.192C1009.57 317.604 1009.43 317.078 1009.15 316.613C1008.87 316.148 1008.49 315.786 1008 315.526C1007.52 315.267 1006.97 315.137 1006.37 315.137ZM1030.43 317.331C1030.43 318.644 1030.2 319.929 1029.76 321.187C1029.32 322.444 1028.71 323.559 1027.94 324.529C1027.16 325.5 1026.3 326.245 1025.34 326.765L1024.32 325.473C1025.2 325.035 1026.01 324.386 1026.74 323.524C1027.46 322.663 1028.04 321.686 1028.47 320.592C1028.9 319.498 1029.11 318.411 1029.11 317.331V314.009H1030.43V317.331ZM1030.69 317.331C1030.69 318.37 1030.91 319.413 1031.33 320.458C1031.75 321.504 1032.33 322.438 1033.05 323.258C1033.78 324.078 1034.56 324.7 1035.41 325.124L1034.43 326.416C1033.48 325.91 1032.63 325.189 1031.86 324.252C1031.1 323.316 1030.5 322.243 1030.06 321.033C1029.62 319.823 1029.4 318.589 1029.4 317.331V314.009H1030.69V317.331ZM1038.69 330.661H1037.09V312.43H1038.69V330.661ZM1041.75 321.228H1038.32V319.833H1041.75V321.228ZM1056.92 318.131H1051.98V316.798H1056.92V318.131ZM1047.76 313.291C1048.66 313.277 1049.46 313.448 1050.18 313.804C1050.89 314.159 1051.45 314.658 1051.86 315.301C1052.27 315.943 1052.47 316.675 1052.47 317.495C1052.47 318.315 1052.27 319.047 1051.86 319.689C1051.45 320.332 1050.89 320.831 1050.18 321.187C1049.46 321.542 1048.66 321.72 1047.76 321.72C1046.84 321.72 1046.02 321.542 1045.31 321.187C1044.59 320.831 1044.03 320.332 1043.62 319.689C1043.22 319.047 1043.02 318.315 1043.02 317.495C1043.02 316.675 1043.22 315.943 1043.62 315.301C1044.03 314.658 1044.59 314.159 1045.32 313.804C1046.04 313.448 1046.85 313.277 1047.76 313.291ZM1047.76 314.665C1047.14 314.651 1046.59 314.764 1046.1 315.003C1045.62 315.243 1045.24 315.578 1044.97 316.008C1044.69 316.439 1044.56 316.935 1044.56 317.495C1044.56 318.042 1044.69 318.534 1044.97 318.972C1045.24 319.409 1045.62 319.751 1046.1 319.997C1046.59 320.243 1047.14 320.366 1047.76 320.366C1048.37 320.366 1048.92 320.243 1049.4 319.997C1049.88 319.751 1050.25 319.409 1050.51 318.972C1050.78 318.534 1050.91 318.042 1050.91 317.495C1050.91 316.935 1050.78 316.439 1050.51 316.008C1050.25 315.578 1049.88 315.243 1049.4 315.003C1048.92 314.764 1048.37 314.651 1047.76 314.665ZM1057.85 322.212H1056.23V312.43H1057.85V322.212ZM1047.71 325.452H1056.23V323.135H1057.85V330.415H1046.09V323.135H1047.71V325.452ZM1056.23 329.103V326.744H1047.71V329.103H1056.23ZM1063.42 320.879C1064.83 320.879 1066.02 320.869 1066.98 320.848C1067.95 320.828 1068.84 320.78 1069.66 320.705C1070.48 320.629 1071.32 320.517 1072.18 320.366L1072.34 321.679C1071.1 321.897 1069.86 322.038 1068.63 322.099C1067.4 322.161 1065.67 322.191 1063.42 322.191H1061.95V320.879H1063.42ZM1070.68 314.891H1063.57V321.576H1061.95V313.558H1070.68V314.891ZM1070.17 318.459H1063.03V317.167H1070.17V318.459ZM1075.93 323.319H1074.33V312.45H1075.93V323.319ZM1075.93 330.415H1064.08V324.222H1075.93V330.415ZM1065.66 329.103H1074.35V325.514H1065.66V329.103Z" fill="#A8A8A8"/>
<rect x="465.5" y="0.5" width="203" height="71" rx="19.5" stroke="white"/>
<path d="M495.324 44.6611H493.786V26.4297H495.324V44.6611ZM494.196 35.1045H490.628V33.7715H494.196V35.1045ZM491.1 43.7178H489.623V26.8398H491.1V43.7178ZM481.584 38.7754C483.074 38.7754 484.312 38.7412 485.296 38.6729C486.28 38.6045 487.278 38.4678 488.29 38.2627L488.434 39.6162C487.395 39.8213 486.373 39.9614 485.368 40.0366C484.363 40.1118 483.102 40.1494 481.584 40.1494H480.415V38.7754H481.584ZM487.244 29.998H482.015V39.4111H480.415V28.665H487.244V29.998ZM504.163 41.5439H502.543V36.2939H504.163V41.5439ZM509.803 41.5439H508.203V36.2939H509.803V41.5439ZM514.581 42.4258H497.888V41.0928H514.581V42.4258ZM512.981 29.4648H499.364V28.1318H512.981V29.4648ZM512.94 36.7451H499.405V35.4121H512.94V36.7451ZM503.855 35.6992H502.256V29.1982H503.855V35.6992ZM510.09 35.6992H508.511V29.1982H510.09V35.6992ZM522.825 27.5166H527.173V28.9727H524.486V45.707H527.173V47.1836H522.825V27.5166ZM543.538 44.6611H541.918V26.4297H543.538V44.6611ZM538.145 28.4189C538.145 30.2236 537.847 31.9121 537.252 33.4844C536.658 35.0566 535.725 36.5024 534.453 37.8218C533.182 39.1411 531.555 40.2793 529.572 41.2363L528.69 39.9238C530.454 39.0898 531.917 38.1089 533.079 36.981C534.241 35.853 535.109 34.5918 535.684 33.1973C536.258 31.8027 536.545 30.292 536.545 28.665V28.4189H538.145ZM537.201 29.7314H529.531V28.4189H537.201V29.7314ZM558.078 29.3418H547.312V28.1113H558.078V29.3418ZM552.705 30.0391C553.566 30.0391 554.329 30.1484 554.992 30.3672C555.655 30.5859 556.167 30.9004 556.53 31.3105C556.892 31.7207 557.073 32.2061 557.073 32.7666C557.073 33.3135 556.892 33.7886 556.53 34.1919C556.167 34.5952 555.655 34.9062 554.992 35.125C554.329 35.3438 553.566 35.4531 552.705 35.4531C551.83 35.4531 551.064 35.3438 550.408 35.125C549.752 34.9062 549.246 34.5952 548.891 34.1919C548.535 33.7886 548.357 33.3135 548.357 32.7666C548.357 32.2061 548.535 31.7207 548.891 31.3105C549.246 30.9004 549.752 30.5859 550.408 30.3672C551.064 30.1484 551.83 30.0391 552.705 30.0391ZM552.705 31.1875C552.145 31.1738 551.652 31.2319 551.229 31.3618C550.805 31.4917 550.473 31.6763 550.234 31.9155C549.995 32.1548 549.875 32.4385 549.875 32.7666C549.875 33.0811 549.995 33.3545 550.234 33.5869C550.473 33.8193 550.805 33.9971 551.229 34.1201C551.652 34.2432 552.145 34.3047 552.705 34.3047C553.266 34.3047 553.758 34.2432 554.182 34.1201C554.605 33.9971 554.934 33.8193 555.166 33.5869C555.398 33.3545 555.515 33.0811 555.515 32.7666C555.515 32.4385 555.398 32.1548 555.166 31.9155C554.934 31.6763 554.605 31.4917 554.182 31.3618C553.758 31.2319 553.266 31.1738 552.705 31.1875ZM553.484 28.7881H551.885V26.3271H553.484V28.7881ZM553.484 37.2988H551.885V34.8174H553.484V37.2988ZM561.646 38.6318H560.026V26.4912H561.646V38.6318ZM561.646 44.6611H560.026V40.7852H549.342V39.4932H561.646V44.6611ZM546.696 36.7656C548.979 36.7656 551.088 36.728 553.023 36.6528C554.958 36.5776 556.786 36.4238 558.509 36.1914L558.632 37.3398C556.854 37.627 555.005 37.8184 553.084 37.9141C551.164 38.0098 549.116 38.0576 546.942 38.0576L546.696 36.7656ZM566.691 37.832C566.459 37.832 566.24 37.7705 566.035 37.6475C565.83 37.5244 565.669 37.3604 565.553 37.1553C565.437 36.9502 565.379 36.7314 565.379 36.499C565.379 36.2666 565.437 36.0479 565.553 35.8428C565.669 35.6377 565.83 35.4771 566.035 35.3608C566.24 35.2446 566.459 35.1865 566.691 35.1865C566.924 35.1865 567.143 35.2446 567.348 35.3608C567.553 35.4771 567.713 35.6377 567.83 35.8428C567.946 36.0479 568.004 36.2666 568.004 36.499C568.004 36.7314 567.946 36.9502 567.83 37.1553C567.713 37.3604 567.553 37.5244 567.348 37.6475C567.143 37.7705 566.924 37.832 566.691 37.832ZM575.94 31.3311C575.94 32.6436 575.718 33.9287 575.274 35.1865C574.83 36.4443 574.221 37.5586 573.449 38.5293C572.676 39.5 571.812 40.2451 570.854 40.7646L569.829 39.4727C570.718 39.0352 571.524 38.3857 572.249 37.5244C572.974 36.6631 573.551 35.6855 573.982 34.5918C574.413 33.498 574.628 32.4111 574.628 31.3311V28.0088H575.94V31.3311ZM576.207 31.3311C576.207 32.3701 576.419 33.4126 576.843 34.4585C577.267 35.5044 577.841 36.4375 578.565 37.2578C579.29 38.0781 580.076 38.7002 580.924 39.124L579.939 40.416C578.996 39.9102 578.142 39.189 577.376 38.2524C576.61 37.3159 576.009 36.2427 575.571 35.0327C575.134 33.8228 574.915 32.5889 574.915 31.3311V28.0088H576.207V31.3311ZM584.205 44.6611H582.605V26.4297H584.205V44.6611ZM587.261 35.2275H583.836V33.833H587.261V35.2275ZM602.437 32.1309H597.494V30.7979H602.437V32.1309ZM593.27 27.291C594.172 27.2773 594.979 27.4482 595.689 27.8037C596.4 28.1592 596.961 28.6582 597.371 29.3008C597.781 29.9434 597.986 30.6748 597.986 31.4951C597.986 32.3154 597.781 33.0469 597.371 33.6895C596.961 34.332 596.4 34.8311 595.689 35.1865C594.979 35.542 594.172 35.7197 593.27 35.7197C592.354 35.7197 591.537 35.542 590.819 35.1865C590.101 34.8311 589.541 34.332 589.137 33.6895C588.734 33.0469 588.532 32.3154 588.532 31.4951C588.532 30.6748 588.734 29.9434 589.137 29.3008C589.541 28.6582 590.104 28.1592 590.829 27.8037C591.554 27.4482 592.367 27.2773 593.27 27.291ZM593.27 28.665C592.654 28.6514 592.104 28.7642 591.619 29.0034C591.133 29.2427 590.754 29.5776 590.48 30.0083C590.207 30.439 590.07 30.9346 590.07 31.4951C590.07 32.042 590.207 32.5342 590.48 32.9717C590.754 33.4092 591.133 33.751 591.619 33.9971C592.104 34.2432 592.654 34.3662 593.27 34.3662C593.885 34.3662 594.432 34.2432 594.91 33.9971C595.389 33.751 595.761 33.4092 596.028 32.9717C596.294 32.5342 596.428 32.042 596.428 31.4951C596.428 30.9346 596.294 30.439 596.028 30.0083C595.761 29.5776 595.389 29.2427 594.91 29.0034C594.432 28.7642 593.885 28.6514 593.27 28.665ZM603.359 36.2119H601.739V26.4297H603.359V36.2119ZM593.229 39.4521H601.739V37.1348H603.359V44.415H591.608V37.1348H593.229V39.4521ZM601.739 43.1025V40.7441H593.229V43.1025H601.739ZM628.276 37.2168H611.665V35.8838H628.276V37.2168ZM620.75 36.4785H619.171V33.6074H620.75V36.4785ZM620.75 28.9316H619.171V26.3887H620.75V28.9316ZM620.504 29.3623C620.504 30.3193 620.172 31.1602 619.509 31.8848C618.846 32.6094 617.961 33.1904 616.854 33.6279C615.746 34.0654 614.509 34.3594 613.142 34.5098L612.629 33.2588C613.818 33.1494 614.905 32.917 615.89 32.5615C616.874 32.2061 617.653 31.7549 618.228 31.208C618.802 30.6611 619.089 30.0459 619.089 29.3623V29.0547H620.504V29.3623ZM620.853 29.3623C620.853 30.0459 621.14 30.6611 621.714 31.208C622.288 31.7549 623.064 32.2061 624.042 32.5615C625.019 32.917 626.103 33.1494 627.292 33.2588L626.8 34.5098C625.446 34.3594 624.212 34.0654 623.098 33.6279C621.984 33.1904 621.095 32.6094 620.432 31.8848C619.769 31.1602 619.438 30.3193 619.438 29.3623V29.0547H620.853V29.3623ZM626.595 29.5264H613.388V28.2139H626.595V29.5264ZM619.971 38.5908C621.297 38.5908 622.425 38.707 623.354 38.9395C624.284 39.1719 624.999 39.5137 625.498 39.9648C625.997 40.416 626.246 40.9629 626.246 41.6055C626.246 42.248 626 42.7949 625.508 43.2461C625.016 43.6973 624.301 44.0391 623.365 44.2715C622.428 44.5039 621.297 44.6201 619.971 44.6201C618.658 44.6201 617.53 44.5039 616.587 44.2715C615.644 44.0391 614.922 43.6973 614.423 43.2461C613.924 42.7949 613.675 42.248 613.675 41.6055C613.675 40.9629 613.924 40.416 614.423 39.9648C614.922 39.5137 615.644 39.1719 616.587 38.9395C617.53 38.707 618.658 38.5908 619.971 38.5908ZM619.971 39.8008C619 39.8008 618.163 39.8691 617.458 40.0059C616.754 40.1426 616.221 40.3477 615.859 40.6211C615.497 40.8945 615.315 41.2227 615.315 41.6055C615.315 41.9883 615.497 42.3096 615.859 42.5693C616.221 42.8291 616.751 43.0273 617.448 43.1641C618.146 43.3008 618.986 43.3691 619.971 43.3691C620.941 43.3691 621.775 43.3008 622.473 43.1641C623.17 43.0273 623.703 42.8291 624.072 42.5693C624.441 42.3096 624.626 41.9883 624.626 41.6055C624.626 41.2227 624.441 40.8945 624.072 40.6211C623.703 40.3477 623.17 40.1426 622.473 40.0059C621.775 39.8691 620.941 39.8008 619.971 39.8008ZM638.981 28.7676H630.84V27.4756H638.981V28.7676ZM635.208 35.002H633.629V31.085H635.208V35.002ZM639.925 28.3164C639.911 29.1914 639.88 29.9673 639.833 30.644C639.785 31.3208 639.658 32.1104 639.453 33.0127L637.874 32.8281C638.065 31.9258 638.185 31.1362 638.233 30.4595C638.281 29.7827 638.305 29.0684 638.305 28.3164V27.4756H639.925V28.3164ZM644.108 36.2529H642.468V26.4297H644.108V36.2529ZM646.774 32.1309H643.329V30.7979H646.774V32.1309ZM629.712 34.4277C631.858 34.4277 633.899 34.3901 635.833 34.3149C637.768 34.2397 639.569 34.0996 641.237 33.8945L641.34 35.043C640.164 35.2344 638.917 35.3813 637.597 35.4839C636.278 35.5864 635.003 35.6548 633.772 35.689C632.542 35.7231 631.243 35.7402 629.876 35.7402L629.712 34.4277ZM644.108 41.2363H633.752V43.6973H632.152V40.0469H642.488V38.3037H632.111V37.0732H644.108V41.2363ZM644.785 44.4561H632.152V43.2256H644.785V44.4561ZM652.127 27.5166V47.1836H647.779V45.707H650.466V28.9727H647.779V27.5166H652.127Z" fill="white"/>
<rect x="465.5" y="182.5" width="203" height="71" rx="19.5" stroke="white"/>
<rect x="930.5" y="182.5" width="203" height="71" rx="19.5" stroke="white"/>
<rect x="0.5" y="182.5" width="203" height="71" rx="19.5" stroke="white"/>
<path d="M521.905 222.026H513.497V210.275H521.905V222.026ZM515.056 220.714H520.306V211.567H515.056V220.714ZM526.848 226.661H525.248V208.43H526.848V226.661ZM529.903 217.104H526.479V215.71H529.903V217.104ZM538.927 210.604C538.927 212.299 538.718 213.878 538.301 215.341C537.884 216.804 537.16 218.181 536.127 219.473C535.095 220.765 533.697 221.896 531.934 222.867L531.011 221.719C532.597 220.857 533.858 219.863 534.794 218.735C535.731 217.607 536.397 216.39 536.794 215.084C537.19 213.779 537.389 212.367 537.389 210.85V210.604H538.927ZM538.004 211.937H531.852V210.604H538.004V211.937ZM531.216 216.653L530.97 215.218L537.163 214.828V216.038L531.216 216.653ZM541.757 216.981H537.471V215.648H541.757V216.981ZM546.494 226.661H544.956V208.43H546.494V226.661ZM542.659 225.738H541.121V208.922H542.659V225.738ZM552.523 217.104C554.342 217.091 555.815 217.05 556.943 216.981C558.071 216.913 559.202 216.79 560.337 216.612L560.501 217.925C559.229 218.13 557.958 218.267 556.687 218.335C555.415 218.403 553.713 218.438 551.58 218.438H550.104V217.104H551.58H552.523ZM558.84 211.096H551.724V217.802H550.104V209.783H558.84V211.096ZM558.327 214.705H551.19V213.393H558.327V214.705ZM564.09 219.75H562.49V208.45H564.09V219.75ZM558.04 220.017C559.298 220.003 560.388 220.126 561.311 220.386C562.234 220.646 562.941 221.021 563.434 221.514C563.926 222.006 564.172 222.601 564.172 223.298C564.172 223.995 563.926 224.593 563.434 225.092C562.941 225.591 562.237 225.971 561.321 226.23C560.405 226.49 559.312 226.62 558.04 226.62C556.755 226.62 555.651 226.49 554.728 226.23C553.805 225.971 553.098 225.591 552.605 225.092C552.113 224.593 551.867 223.995 551.867 223.298C551.867 222.601 552.113 222.006 552.605 221.514C553.098 221.021 553.805 220.646 554.728 220.386C555.651 220.126 556.755 220.003 558.04 220.017ZM558.04 221.288C557.097 221.288 556.28 221.367 555.589 221.524C554.899 221.681 554.373 221.91 554.01 222.211C553.648 222.512 553.467 222.874 553.467 223.298C553.467 223.722 553.648 224.087 554.01 224.395C554.373 224.703 554.899 224.938 555.589 225.103C556.28 225.267 557.097 225.349 558.04 225.349C558.97 225.349 559.776 225.267 560.46 225.103C561.144 224.938 561.67 224.703 562.039 224.395C562.408 224.087 562.593 223.722 562.593 223.298C562.593 222.888 562.408 222.529 562.039 222.221C561.67 221.914 561.144 221.681 560.46 221.524C559.776 221.367 558.97 221.288 558.04 221.288ZM582.26 226.661H580.64V208.43H582.26V226.661ZM576.866 210.419C576.866 212.224 576.569 213.912 575.974 215.484C575.379 217.057 574.446 218.502 573.175 219.822C571.903 221.141 570.276 222.279 568.294 223.236L567.412 221.924C569.176 221.09 570.639 220.109 571.801 218.981C572.963 217.853 573.831 216.592 574.405 215.197C574.979 213.803 575.267 212.292 575.267 210.665V210.419H576.866ZM575.923 211.731H568.253V210.419H575.923V211.731ZM596.8 211.342H586.033V210.111H596.8V211.342ZM591.427 212.039C592.288 212.039 593.05 212.148 593.713 212.367C594.376 212.586 594.889 212.9 595.251 213.311C595.614 213.721 595.795 214.206 595.795 214.767C595.795 215.313 595.614 215.789 595.251 216.192C594.889 216.595 594.376 216.906 593.713 217.125C593.05 217.344 592.288 217.453 591.427 217.453C590.552 217.453 589.786 217.344 589.13 217.125C588.474 216.906 587.968 216.595 587.612 216.192C587.257 215.789 587.079 215.313 587.079 214.767C587.079 214.206 587.257 213.721 587.612 213.311C587.968 212.9 588.474 212.586 589.13 212.367C589.786 212.148 590.552 212.039 591.427 212.039ZM591.427 213.188C590.866 213.174 590.374 213.232 589.95 213.362C589.526 213.492 589.195 213.676 588.956 213.916C588.716 214.155 588.597 214.438 588.597 214.767C588.597 215.081 588.716 215.354 588.956 215.587C589.195 215.819 589.526 215.997 589.95 216.12C590.374 216.243 590.866 216.305 591.427 216.305C591.987 216.305 592.479 216.243 592.903 216.12C593.327 215.997 593.655 215.819 593.888 215.587C594.12 215.354 594.236 215.081 594.236 214.767C594.236 214.438 594.12 214.155 593.888 213.916C593.655 213.676 593.327 213.492 592.903 213.362C592.479 213.232 591.987 213.174 591.427 213.188ZM592.206 210.788H590.606V208.327H592.206V210.788ZM592.206 219.299H590.606V216.817H592.206V219.299ZM600.368 220.632H598.748V208.491H600.368V220.632ZM600.368 226.661H598.748V222.785H588.063V221.493H600.368V226.661ZM585.418 218.766C587.701 218.766 589.81 218.728 591.745 218.653C593.679 218.578 595.508 218.424 597.23 218.191L597.354 219.34C595.576 219.627 593.727 219.818 591.806 219.914C589.885 220.01 587.838 220.058 585.664 220.058L585.418 218.766ZM620.158 220.57H603.465V219.258H620.158V220.57ZM612.55 226.661H610.971V219.832H612.55V226.661ZM607.197 211.711H616.385V209.188H618.005V217.043H605.598V209.188H607.197V211.711ZM616.385 215.73V213.023H607.197V215.73H616.385Z" fill="white"/>
<path d="M1011.86 213.331C1011.86 214.644 1011.64 215.929 1011.19 217.187C1010.75 218.444 1010.14 219.559 1009.37 220.529C1008.59 221.5 1007.73 222.245 1006.77 222.765L1005.75 221.473C1006.64 221.035 1007.44 220.386 1008.17 219.524C1008.89 218.663 1009.47 217.686 1009.9 216.592C1010.33 215.498 1010.55 214.411 1010.55 213.331V210.009H1011.86V213.331ZM1012.13 213.331C1012.13 214.37 1012.34 215.413 1012.76 216.458C1013.19 217.504 1013.76 218.438 1014.48 219.258C1015.21 220.078 1015.99 220.7 1016.84 221.124L1015.86 222.416C1014.91 221.91 1014.06 221.189 1013.29 220.252C1012.53 219.316 1011.93 218.243 1011.49 217.033C1011.05 215.823 1010.83 214.589 1010.83 213.331V210.009H1012.13V213.331ZM1020.12 226.661H1018.52V208.43H1020.12V226.661ZM1023.18 217.228H1019.75V215.833H1023.18V217.228ZM1038.35 214.131H1033.41V212.798H1038.35V214.131ZM1029.19 209.291C1030.09 209.277 1030.9 209.448 1031.61 209.804C1032.32 210.159 1032.88 210.658 1033.29 211.301C1033.7 211.943 1033.9 212.675 1033.9 213.495C1033.9 214.315 1033.7 215.047 1033.29 215.689C1032.88 216.332 1032.32 216.831 1031.61 217.187C1030.9 217.542 1030.09 217.72 1029.19 217.72C1028.27 217.72 1027.46 217.542 1026.74 217.187C1026.02 216.831 1025.46 216.332 1025.06 215.689C1024.65 215.047 1024.45 214.315 1024.45 213.495C1024.45 212.675 1024.65 211.943 1025.06 211.301C1025.46 210.658 1026.02 210.159 1026.75 209.804C1027.47 209.448 1028.29 209.277 1029.19 209.291ZM1029.19 210.665C1028.57 210.651 1028.02 210.764 1027.54 211.003C1027.05 211.243 1026.67 211.578 1026.4 212.008C1026.13 212.439 1025.99 212.935 1025.99 213.495C1025.99 214.042 1026.13 214.534 1026.4 214.972C1026.67 215.409 1027.05 215.751 1027.54 215.997C1028.02 216.243 1028.57 216.366 1029.19 216.366C1029.8 216.366 1030.35 216.243 1030.83 215.997C1031.31 215.751 1031.68 215.409 1031.95 214.972C1032.21 214.534 1032.35 214.042 1032.35 213.495C1032.35 212.935 1032.21 212.439 1031.95 212.008C1031.68 211.578 1031.31 211.243 1030.83 211.003C1030.35 210.764 1029.8 210.651 1029.19 210.665ZM1039.28 218.212H1037.66V208.43H1039.28V218.212ZM1029.15 221.452H1037.66V219.135H1039.28V226.415H1027.53V219.135H1029.15V221.452ZM1037.66 225.103V222.744H1029.15V225.103H1037.66ZM1058.99 220.57H1042.29V219.258H1058.99V220.57ZM1051.38 226.661H1049.8V219.832H1051.38V226.661ZM1046.02 211.711H1055.21V209.188H1056.83V217.043H1044.43V209.188H1046.02V211.711ZM1055.21 215.73V213.023H1046.02V215.73H1055.21Z" fill="white"/>
<path d="M89.7954 213.146H84.812V211.854H89.7954V213.146ZM89.6724 216.94H84.6685V215.607H89.6724V216.94ZM91.1284 219.401H89.5083V208.45H91.1284V219.401ZM85.4888 209.804C85.4888 211.335 85.1436 212.729 84.4531 213.987C83.7627 215.245 82.7783 216.322 81.5 217.217C80.2217 218.113 78.7007 218.827 76.937 219.36L76.2603 218.089C77.8325 217.624 79.1792 217.019 80.3003 216.274C81.4214 215.529 82.2793 214.667 82.874 213.69C83.4688 212.712 83.7661 211.656 83.7661 210.521V209.804H85.4888ZM84.853 211.157H77.1831V209.804H84.853V211.157ZM85.1606 219.586C86.3911 219.586 87.4644 219.726 88.3804 220.006C89.2964 220.287 90.0005 220.687 90.4927 221.206C90.9849 221.726 91.231 222.348 91.231 223.072C91.231 223.797 90.9849 224.422 90.4927 224.949C90.0005 225.475 89.2964 225.878 88.3804 226.159C87.4644 226.439 86.3911 226.579 85.1606 226.579C83.9302 226.579 82.8569 226.439 81.9409 226.159C81.0249 225.878 80.3174 225.475 79.8184 224.949C79.3193 224.422 79.0698 223.797 79.0698 223.072C79.0698 222.348 79.3193 221.726 79.8184 221.206C80.3174 220.687 81.0249 220.287 81.9409 220.006C82.8569 219.726 83.9302 219.586 85.1606 219.586ZM85.1606 220.878C84.2583 220.864 83.4653 220.946 82.7817 221.124C82.0981 221.302 81.5718 221.558 81.2026 221.893C80.8335 222.228 80.6489 222.621 80.6489 223.072C80.6489 223.523 80.8335 223.913 81.2026 224.241C81.5718 224.569 82.0947 224.822 82.7715 225C83.4482 225.178 84.2446 225.267 85.1606 225.267C86.063 225.267 86.8491 225.178 87.519 225C88.189 224.822 88.7085 224.569 89.0776 224.241C89.4468 223.913 89.6313 223.523 89.6313 223.072C89.6313 222.621 89.4468 222.228 89.0776 221.893C88.7085 221.558 88.189 221.302 87.519 221.124C86.8491 220.946 86.063 220.864 85.1606 220.878ZM108.15 212.388H102.572V211.075H108.15V212.388ZM108.15 216.633H102.572V215.3H108.15V216.633ZM99.188 209.537C100.077 209.523 100.88 209.701 101.598 210.07C102.315 210.439 102.879 210.952 103.29 211.608C103.7 212.265 103.905 213.017 103.905 213.864C103.905 214.698 103.7 215.443 103.29 216.1C102.879 216.756 102.315 217.265 101.598 217.627C100.88 217.99 100.077 218.171 99.188 218.171C98.2856 218.171 97.4756 217.99 96.7578 217.627C96.04 217.265 95.4761 216.756 95.0659 216.1C94.6558 215.443 94.4507 214.698 94.4507 213.864C94.4507 213.017 94.6558 212.265 95.0659 211.608C95.4761 210.952 96.04 210.439 96.7578 210.07C97.4756 209.701 98.2856 209.523 99.188 209.537ZM99.188 210.932C98.5728 210.918 98.0225 211.038 97.5371 211.291C97.0518 211.543 96.6724 211.892 96.3989 212.336C96.1255 212.781 95.9888 213.29 95.9888 213.864C95.9888 214.425 96.1255 214.927 96.3989 215.372C96.6724 215.816 97.0518 216.165 97.5371 216.417C98.0225 216.67 98.5728 216.797 99.188 216.797C99.7896 216.797 100.33 216.67 100.808 216.417C101.287 216.165 101.663 215.816 101.936 215.372C102.209 214.927 102.346 214.425 102.346 213.864C102.346 213.29 102.209 212.781 101.936 212.336C101.663 211.892 101.287 211.543 100.808 211.291C100.33 211.038 99.7896 210.918 99.188 210.932ZM109.278 219.237H107.658V208.43H109.278V219.237ZM103.228 219.668C104.486 219.668 105.573 219.805 106.489 220.078C107.405 220.352 108.109 220.748 108.601 221.268C109.093 221.787 109.339 222.409 109.339 223.134C109.339 223.858 109.093 224.484 108.601 225.01C108.109 225.537 107.405 225.937 106.489 226.21C105.573 226.483 104.486 226.62 103.228 226.62C101.97 226.62 100.883 226.483 99.9673 226.21C99.0513 225.937 98.3472 225.537 97.855 225.01C97.3628 224.484 97.1167 223.858 97.1167 223.134C97.1167 222.409 97.3628 221.787 97.855 221.268C98.3472 220.748 99.0513 220.352 99.9673 220.078C100.883 219.805 101.97 219.668 103.228 219.668ZM103.228 220.919C102.312 220.919 101.512 221.008 100.829 221.186C100.145 221.363 99.6187 221.62 99.2495 221.955C98.8804 222.29 98.6958 222.683 98.6958 223.134C98.6958 223.585 98.8804 223.975 99.2495 224.303C99.6187 224.631 100.145 224.884 100.829 225.062C101.512 225.239 102.312 225.328 103.228 225.328C104.158 225.328 104.964 225.239 105.648 225.062C106.332 224.884 106.854 224.631 107.217 224.303C107.579 223.975 107.76 223.585 107.76 223.134C107.76 222.669 107.579 222.272 107.217 221.944C106.854 221.616 106.332 221.363 105.648 221.186C104.964 221.008 104.158 220.919 103.228 220.919ZM128.986 220.57H112.292V219.258H128.986V220.57ZM121.377 226.661H119.798V219.832H121.377V226.661ZM116.025 211.711H125.212V209.188H126.833V217.043H114.425V209.188H116.025V211.711ZM125.212 215.73V213.023H116.025V215.73H125.212Z" fill="white"/>
<line x1="567.5" y1="72" x2="567.5" y2="182" stroke="white"/>
<line x1="102.5" y1="127" x2="102.5" y2="182" stroke="white"/>
<line x1="1032.5" y1="127" x2="1032.5" y2="182" stroke="white"/>
<line x1="1033" y1="127.5" x2="102" y2="127.5" stroke="white"/>
</svg>
